<?xml version="1.0" encoding="utf-8"?>
<!-- Generator: $$$/GeneralStr/196=Adobe Illustrator 27.6.0, SVG Export Plug-In . SVG Version: 6.00 Build 0)  -->
<svg version="1.1" xmlns="http://www.w3.org/2000/svg" xmlns:xlink="http://www.w3.org/1999/xlink" x="0px" y="0px"
	 viewBox="0 0 600 90" style="enable-background:new 0 0 600 90;" xml:space="preserve">
<style type="text/css">
	.st0{clip-path:url(#SVGID_00000114763436860602169650000014915449807002677667_);}
	.st1{fill:url(#SVGID_00000008143015556742279260000009716497293923924114_);}
	.st2{clip-path:url(#SVGID_00000112625163496144863790000010174250079496566173_);}
	.st3{fill:url(#SVGID_00000088105228551360634430000005551219662309456784_);}
	.st4{clip-path:url(#SVGID_00000142145262219590248740000000650947265419077778_);}
	.st5{fill:#1B9DD9;}
	.st6{fill:#2B2B2B;}
	.st7{display:none;}
	.st8{display:inline;}
	.st9{fill:#FFFFFF;stroke:#020203;stroke-width:1.0416;}
	.st10{fill:#020203;}
	.st11{fill:#ABB1AA;}
	.st12{clip-path:url(#SVGID_00000070815682676373959410000012070171993931143045_);}
	.st13{fill:#FFFFFF;}
	.st14{fill:#B31824;}
	.st15{fill:#DC931A;}
	.st16{fill:#0F3B5F;}
	.st17{fill:#AAB2AB;}
</style>
<g id="Ebene_1">
	<g id="euniwell_00000176024500979441052070000008926660031292257174_">
		<g>
			<g>
				<defs>
					<path id="SVGID_1_" d="M76.8,55.4c-0.6-0.1-1.1,0.3-1.1,0.9c0,0.1,0,0.2,0,0.3v14.8c0,3.2-1.3,4.7-4,4.7c-2.7,0-4-1.5-4-4.7
						V56.5c0.1-0.6-0.3-1.1-0.9-1.2c-0.1,0-0.2,0-0.2,0h-3.2c-0.6-0.1-1.1,0.3-1.1,0.9c0,0.1,0,0.2,0,0.3v15.1c0,0.3,0,0.7,0,1
						c-0.3,2.4-1.5,3.5-3.9,3.5c-2.7,0-4-1.5-4-4.7V56.5c0.1-0.6-0.3-1.1-0.9-1.2c-0.1,0-0.2,0-0.2,0h-3c-0.6-0.1-1.1,0.3-1.1,0.9
						c0,0.1,0,0.2,0,0.3v15.1c0,5.9,3.3,9.2,9.4,9.2c2.8,0,5.1-0.7,6.6-2.1c1.6,1.4,3.8,2.1,6.7,2.1c6,0,9.3-3.2,9.3-9.2V56.5
						c0.1-0.6-0.3-1.1-0.9-1.1c-0.1,0-0.2,0-0.3,0H76.8z M92.3,64.6c0-3.5,1.4-5.2,4.2-5.2s4.2,1.7,4.2,5.2v0.7h-8.4V64.6z
						 M86.9,64.2v6.6c0,6.6,3.6,9.9,10.4,9.9c2.7,0.1,5.4-0.9,7.5-2.7c0.5-0.4,0.6-1,0.3-1.5c0,0,0,0-0.1-0.1l-1.3-1.9
						c-0.4-0.6-1-0.6-1.6-0.1c-1.2,1.1-2.8,1.7-4.5,1.7c-3.6,0-5.2-1.7-5.2-5.6v-1h12.5c0.6,0.1,1.1-0.3,1.1-0.9c0-0.1,0-0.2,0-0.2
						v-4.1c0-6.1-3.4-9.5-9.5-9.5S86.9,58.1,86.9,64.2 M112.8,47.5c-0.6-0.1-1.1,0.3-1.2,0.9c0,0.1,0,0.2,0,0.2V79
						c-0.1,0.6,0.3,1.1,0.9,1.2c0.1,0,0.2,0,0.3,0h3.1c0.6,0.1,1.1-0.3,1.2-0.9c0-0.1,0-0.2,0-0.3V48.6c0.1-0.6-0.3-1.1-0.9-1.2
						c-0.1,0-0.2,0-0.2,0H112.8z M124.2,47.5c-0.6-0.1-1.1,0.3-1.2,0.9c0,0.1,0,0.2,0,0.2V79c-0.1,0.6,0.3,1.1,0.9,1.2
						c0.1,0,0.2,0,0.3,0h3.1c0.6,0.1,1.1-0.3,1.2-0.9c0-0.1,0-0.2,0-0.3V48.6c0.1-0.6-0.3-1.1-0.9-1.2c-0.1,0-0.2,0-0.2,0H124.2z"/>
				</defs>
				<clipPath id="SVGID_00000008112718730683488960000016347609921505961381_">
					<use xlink:href="#SVGID_1_"  style="overflow:visible;"/>
				</clipPath>
				<g style="clip-path:url(#SVGID_00000008112718730683488960000016347609921505961381_);">
					
						<linearGradient id="SVGID_00000151520320645924108900000012812887198151863459_" gradientUnits="userSpaceOnUse" x1="-1.8501" y1="119.4935" x2="-1.4196" y2="119.4935" gradientTransform="matrix(184.47 0 0 184.47 390.87 -21978.8594)">
						<stop  offset="0" style="stop-color:#1B9DD9"/>
						<stop  offset="0.99" style="stop-color:#E21B80"/>
						<stop  offset="1" style="stop-color:#E21B80"/>
					</linearGradient>
					
						<rect x="48.9" y="47.5" style="fill:url(#SVGID_00000151520320645924108900000012812887198151863459_);" width="79.6" height="33.3"/>
				</g>
			</g>
			<g>
				<defs>
					<path id="SVGID_00000074410336181584086300000016179977902998313866_" d="M112.5,16.7c-0.6-0.1-1.1,0.3-1.2,0.9
						c0,0.1,0,0.2,0,0.3v22.5c-0.1,0.6,0.3,1.1,0.9,1.1c0.1,0,0.2,0,0.3,0h3.1c0.6,0.1,1.1-0.3,1.1-0.9c0-0.1,0-0.2,0-0.3V17.9
						c0.1-0.6-0.3-1.1-0.9-1.1c-0.1,0-0.2,0-0.3,0L112.5,16.7z M86.6,25.5v14.9c-0.1,0.6,0.3,1.1,0.9,1.1c0.1,0,0.2,0,0.3,0h3.1
						c0.6,0.1,1.1-0.3,1.1-0.9c0-0.1,0-0.2,0-0.2V25.8c0-3.4,1.3-5,4.1-5s4,1.6,4,5v14.6c-0.1,0.6,0.3,1.1,0.9,1.1
						c0.1,0,0.2,0,0.3,0h3.1c0.6,0.1,1.1-0.4,1.1-0.9c0-0.1,0-0.2,0-0.2V25.5c0-6.1-3.3-9.3-9.5-9.3C89.9,16.2,86.6,19.4,86.6,25.5
						 M114.1,6.2c-1.7-0.1-3.2,1.3-3.2,3c0,0.1,0,0.2,0,0.2c-0.1,1.8,1.3,3.3,3.1,3.4c1.8,0.1,3.3-1.3,3.4-3.1c0-0.1,0-0.2,0-0.3
						c0-1.7-1.3-3.2-3-3.2C114.2,6.2,114.2,6.2,114.1,6.2z"/>
				</defs>
				<clipPath id="SVGID_00000055700275540928655710000003009141378241913271_">
					<use xlink:href="#SVGID_00000074410336181584086300000016179977902998313866_"  style="overflow:visible;"/>
				</clipPath>
				<g style="clip-path:url(#SVGID_00000055700275540928655710000003009141378241913271_);">
					
						<linearGradient id="SVGID_00000150810998914562748370000000702895503681898655_" gradientUnits="userSpaceOnUse" x1="-2.3218" y1="120.9859" x2="-1.883" y2="120.9859" gradientTransform="matrix(71.36 0 0 71.36 251.97 -8609.71)">
						<stop  offset="0" style="stop-color:#1B9DD9"/>
						<stop  offset="0.99" style="stop-color:#E21B80"/>
						<stop  offset="1" style="stop-color:#E21B80"/>
					</linearGradient>
					
						<rect x="86.6" y="6.2" style="fill:url(#SVGID_00000150810998914562748370000000702895503681898655_);" width="30.8" height="35.4"/>
				</g>
			</g>
			<g>
				<defs>
					<rect id="SVGID_00000183247764147722847470000001131065550686263178_" x="38.6" y="6.2" width="89.9" height="74.6"/>
				</defs>
				<clipPath id="SVGID_00000029018964448807230470000015153226443757965972_">
					<use xlink:href="#SVGID_00000183247764147722847470000001131065550686263178_"  style="overflow:visible;"/>
				</clipPath>
				<g style="clip-path:url(#SVGID_00000029018964448807230470000015153226443757965972_);">
					<path class="st5" d="M81,17.9c0.1-0.6-0.3-1.1-0.9-1.1c-0.1,0-0.2,0-0.2,0h-3c-0.6-0.1-1.1,0.3-1.1,0.9c0,0.1,0,0.2,0,0.2v14.8
						c0,3.2-1.3,4.7-4,4.7c-2.7,0-4-1.5-4-4.7V17.9c0.1-0.6-0.3-1.1-0.9-1.1c-0.1,0-0.2,0-0.3,0h-3.1c-0.6-0.1-1.1,0.3-1.1,0.9
						c0,0.1,0,0.2,0,0.2v15.1c0,5.9,3.3,9.2,9.4,9.2c6.1,0,9.3-3.2,9.3-9.2L81,17.9z M52.4,26.8H44V26c0-3.5,1.4-5.2,4.2-5.2
						s4.2,1.7,4.2,5.2V26.8z M48.1,16.1c-6.1,0-9.5,3.3-9.5,9.5v6.6c0,6.6,3.6,9.9,10.4,9.9c2.7,0.1,5.4-0.9,7.5-2.7
						c0.5-0.3,0.6-1,0.3-1.5c0,0,0-0.1-0.1-0.1l-1.3-1.9c-0.4-0.7-1-0.7-1.6-0.2c-1.2,1.1-2.8,1.7-4.5,1.7c-3.6,0-5.2-1.7-5.2-5.6
						v-1h12.5c0.6,0.1,1.1-0.3,1.1-0.9c0-0.1,0-0.2,0-0.3v-4.1C57.6,19.5,54.2,16.1,48.1,16.1"/>
				</g>
			</g>
		</g>
		<g>
			<path class="st6" d="M228.9,78.7c-1.5,0-2.3-0.8-2.3-2.7v-2.3c0-1.8,0.7-2.7,2.3-2.7s2.3,0.8,2.3,2.7v2.3
				C231.2,77.8,230.4,78.7,228.9,78.7 M228.9,69.4c-2.6,0-4,1.4-4,4.1v2.7c0,2.6,1.3,4.1,3.8,4.1c1,0.1,1.9-0.3,2.5-1.1h0v0.9
				c0.1,1.2-0.7,2.2-1.9,2.4c-0.2,0-0.3,0-0.5,0c-0.9,0-1.8-0.3-2.5-0.8c-0.1-0.1-0.3-0.2-0.5-0.1c0,0-0.1,0.1-0.1,0.1l-0.4,0.6
				c-0.1,0.2-0.1,0.4,0,0.5c0,0,0,0,0,0c1,0.8,2.2,1.2,3.5,1.1c2.5,0,4-1.4,4-3.8v-6.7C233,70.8,231.5,69.4,228.9,69.4 M220.7,79.9
				c0,0.2,0.1,0.4,0.3,0.4c0,0,0,0,0.1,0h1c0.2,0,0.4-0.1,0.4-0.3c0,0,0,0,0-0.1v-6.5c0-2.6-1.4-4-4-4s-4,1.4-4,4v6.5
				c0,0.2,0.1,0.4,0.3,0.4c0,0,0,0,0.1,0h1c0.2,0,0.4-0.1,0.4-0.3c0,0,0,0,0-0.1v-6.3c0-1.8,0.7-2.6,2.2-2.6c1.5,0,2.2,0.8,2.2,2.6
				L220.7,79.9z M211.3,80.3c0.2,0,0.4-0.1,0.4-0.3c0,0,0-0.1,0-0.1V70c0-0.2-0.1-0.4-0.3-0.4c0,0-0.1,0-0.1,0h-1
				c-0.2,0-0.4,0.1-0.4,0.3c0,0,0,0,0,0.1v9.9c0,0.2,0.1,0.4,0.3,0.4c0,0,0,0,0.1,0H211.3z M210.9,67.7c0.6,0,1.1-0.5,1.2-1.1
				c0-0.6-0.5-1.1-1.1-1.2c-0.6,0-1.1,0.5-1.2,1.1c0,0,0,0,0,0C209.7,67.2,210.2,67.7,210.9,67.7C210.8,67.7,210.8,67.7,210.9,67.7
				 M206,74.1h-4.5v-0.5c0-1.9,0.7-2.7,2.2-2.7s2.2,0.8,2.2,2.7V74.1z M203.7,69.4c-2.6,0-4,1.4-4,4.1v2.9c0,2.8,1.5,4.1,4.3,4.1
				c1.2,0,2.4-0.4,3.2-1.3c0.2-0.2,0.2-0.4,0-0.6c0,0,0,0,0,0l-0.4-0.5c-0.1-0.2-0.3-0.2-0.5-0.1c0,0-0.1,0.1-0.1,0.1
				c-0.6,0.6-1.4,0.9-2.2,0.9c-1.8,0-2.6-0.8-2.6-2.8v-0.6h5.8c0.2,0,0.4-0.1,0.4-0.3c0,0,0-0.1,0-0.1v-1.7
				C207.7,70.8,206.3,69.4,203.7,69.4 M190.2,78.6v-4.7h2.8c2,0,2.9,0.7,2.9,2.4s-0.9,2.3-2.9,2.3H190.2z M190.2,72.2v-4.5h2.4
				c2,0,2.9,0.7,2.9,2.2c0,1.5-0.9,2.3-2.9,2.3H190.2z M195.4,73c1.4-0.5,2.1-1.6,2.1-3.2c0-2.6-1.5-3.7-4.9-3.7h-3.9
				c-0.2,0-0.4,0.1-0.4,0.3c0,0,0,0,0,0.1v13.5c0,0.2,0.1,0.4,0.3,0.4c0,0,0,0,0.1,0h4.3c3.4,0,4.9-1.2,4.9-3.8
				C197.8,74.6,197.1,73.5,195.4,73L195.4,73z M185.5,75.3c0.2,0,0.4-0.1,0.4-0.3c0,0,0-0.1,0-0.1V74c0-0.2-0.1-0.4-0.3-0.4
				c0,0-0.1,0-0.1,0h-5c-0.2,0-0.4,0.1-0.4,0.3c0,0,0,0.1,0,0.1v0.9c0,0.2,0.1,0.4,0.3,0.4c0,0,0.1,0,0.1,0H185.5z M177.5,80.3
				c0.2,0,0.4-0.1,0.4-0.3c0,0,0-0.1,0-0.1V65.6c0-0.2-0.1-0.4-0.3-0.4c0,0,0,0-0.1,0h-1c-0.2,0-0.4,0.1-0.4,0.3c0,0,0,0.1,0,0.1
				v14.2c0,0.2,0.1,0.4,0.3,0.4c0,0,0,0,0.1,0L177.5,80.3z M172.9,80.3c0.2,0,0.4-0.1,0.4-0.3c0,0,0-0.1,0-0.1V65.6
				c0-0.2-0.1-0.4-0.3-0.4c0,0-0.1,0-0.1,0h-1c-0.2,0-0.4,0.1-0.4,0.3c0,0,0,0.1,0,0.1v14.2c0,0.2,0.1,0.4,0.3,0.4c0,0,0,0,0.1,0
				L172.9,80.3z M167.5,74.1H163v-0.5c0-1.9,0.7-2.7,2.2-2.7s2.2,0.8,2.2,2.7V74.1z M165.2,69.4c-2.6,0-4,1.4-4,4.1v2.9
				c0,2.8,1.5,4.1,4.3,4.1c1.2,0,2.4-0.4,3.2-1.3c0.2-0.2,0.2-0.4,0-0.6l-0.4-0.5c-0.1-0.2-0.3-0.2-0.5-0.1c0,0-0.1,0.1-0.1,0.1
				c-0.6,0.6-1.4,0.9-2.2,0.9c-1.8,0-2.6-0.8-2.6-2.8v-0.6h5.8c0.2,0,0.4-0.1,0.4-0.3c0,0,0,0,0-0.1v-1.7
				C169.2,70.8,167.8,69.4,165.2,69.4 M158.6,66c-0.2,0-0.4,0.1-0.5,0.3l-2.7,10.8h0l-2.9-10.8c0-0.2-0.2-0.4-0.5-0.4c0,0,0,0,0,0
				h-0.9c-0.2,0-0.4,0.1-0.5,0.3c0,0,0,0,0,0l-2.8,10.9h0L145,66.4c0-0.2-0.2-0.4-0.4-0.3h-1.3c-0.3,0-0.4,0.2-0.3,0.4l3.6,13.5
				c0,0.2,0.2,0.4,0.5,0.4c0,0,0,0,0,0h1.4c0.2,0,0.4-0.1,0.5-0.4l2.6-10.1h0l2.7,10.1c0,0.2,0.2,0.4,0.5,0.4c0,0,0,0,0,0h1.4
				c0.2,0,0.4-0.1,0.5-0.3c0,0,0,0,0,0l3.6-13.5c0.1-0.3,0-0.4-0.3-0.4L158.6,66z"/>
			<path class="st6" d="M252.6,55.2c0,0.2,0.1,0.4,0.3,0.4c0,0,0.1,0,0.1,0h1c0.2,0,0.4-0.1,0.4-0.3c0,0,0-0.1,0-0.1v-6.6
				c0-1.7,0.6-2.4,2-2.4c0.5,0,1,0.1,1.4,0.4c0.2,0.1,0.4,0.1,0.5,0c0,0,0,0,0.1-0.1l0.4-0.6c0.1-0.2,0.1-0.4-0.1-0.5c0,0,0,0-0.1,0
				c-0.7-0.4-1.5-0.7-2.4-0.6c-2.3,0-3.6,1.3-3.6,3.9V55.2z M248.4,51.7c0,1.8-0.7,2.7-2.3,2.7c-1.6,0-2.3-0.9-2.3-2.7V49
				c0-1.9,0.7-2.7,2.3-2.7s2.3,0.8,2.3,2.7L248.4,51.7z M246.1,44.7c-2.6,0-4,1.4-4,4.1v3.1c0,2.6,1.4,4,4,4c2.6,0,4.1-1.4,4.1-4
				v-3.1C250.2,46.2,248.8,44.7,246.1,44.7 M239.6,41.9c0.5,0,0.9,0.1,1.3,0.3c0.2,0.1,0.4,0.1,0.5-0.1c0,0,0-0.1,0.1-0.1l0.3-0.7
				c0.1-0.2,0.1-0.4-0.1-0.5c0,0,0,0-0.1,0c-0.7-0.3-1.4-0.4-2.1-0.4c-2.2,0-3.5,1.3-3.5,3.7V45h-1.1c-0.2,0-0.4,0.1-0.4,0.3
				c0,0,0,0.1,0,0.1v0.7c0,0.2,0.1,0.4,0.3,0.4c0,0,0,0,0.1,0h1.1v8.7c0,0.2,0.1,0.4,0.3,0.4c0,0,0.1,0,0.1,0h1
				c0.2,0,0.4-0.1,0.4-0.3c0,0,0-0.1,0-0.1v-8.7h2.9c0.2,0,0.4-0.1,0.4-0.3c0,0,0,0,0-0.1v-0.7c0-0.2-0.1-0.4-0.3-0.4
				c0,0-0.1,0-0.1,0h-2.9v-0.9C237.7,42.6,238.4,41.9,239.6,41.9 M226.6,45c-0.2,0-0.4,0.1-0.4,0.3c0,0,0,0,0,0.1v6
				c0,1.7-0.7,2.6-2.2,2.6c-1.5,0-2.2-0.8-2.2-2.6v-6c0-0.2-0.1-0.4-0.3-0.4c0,0-0.1,0-0.1,0h-1c-0.2,0-0.4,0.1-0.4,0.3
				c0,0,0,0.1,0,0.1v6.2c0,2.6,1.3,4,3.6,4c0.9,0.1,1.9-0.3,2.5-1.1l0,0v0.9c0.1,1.2-0.7,2.2-1.8,2.4c-0.2,0-0.3,0-0.5,0
				c-0.9,0-1.8-0.3-2.5-0.8c-0.1-0.1-0.3-0.2-0.4-0.1c-0.1,0-0.1,0.1-0.1,0.1l-0.4,0.6c-0.1,0.2-0.1,0.4,0,0.6c0,0,0,0,0,0
				c1,0.8,2.2,1.2,3.5,1.2c2.5,0,4-1.4,4-3.8V45.4c0-0.2-0.1-0.4-0.3-0.4c0,0-0.1,0-0.1,0L226.6,45z M218.2,54.3
				c-0.1-0.3-0.3-0.3-0.6-0.2c-0.3,0.2-0.7,0.3-1.1,0.3c-1.1,0-1.7-0.6-1.7-1.9v-6h2.9c0.2,0,0.4-0.1,0.4-0.3c0,0,0-0.1,0-0.1v-0.7
				c0-0.2-0.1-0.4-0.3-0.4c0,0,0,0-0.1,0h-2.9v-2.4c0-0.2-0.1-0.4-0.3-0.4c0,0-0.1,0-0.1,0h-1c-0.2,0-0.4,0.1-0.4,0.3
				c0,0,0,0.1,0,0.1V45h-1.1c-0.2,0-0.4,0.1-0.4,0.3c0,0,0,0.1,0,0.1v0.7c0,0.2,0.1,0.4,0.3,0.4c0,0,0,0,0.1,0h1.1v6
				c0,2.2,1.1,3.4,3.3,3.4c0.7,0,1.3-0.1,1.9-0.4c0.2-0.1,0.3-0.3,0.2-0.5c0,0,0,0,0,0L218.2,54.3z M209.3,55.7
				c0.2,0,0.4-0.1,0.4-0.3c0,0,0,0,0-0.1v-9.9c0-0.2-0.1-0.4-0.3-0.4c0,0-0.1,0-0.1,0h-1c-0.2,0-0.4,0.1-0.4,0.3c0,0,0,0.1,0,0.1
				v9.8c0,0.2,0.1,0.4,0.3,0.4c0,0,0.1,0,0.1,0L209.3,55.7z M208.8,43.1c0.6,0.1,1.2-0.4,1.2-1c0.1-0.6-0.4-1.2-1-1.2
				c-0.1,0-0.1,0-0.2,0c-0.6,0.1-1.1,0.6-1,1.2C207.8,42.6,208.3,43,208.8,43.1 M205.9,52.8c0-1.9-0.9-2.9-3.4-3.3
				c-1.7-0.2-2.3-0.7-2.3-1.5c0-1.1,0.8-1.7,2.2-1.7c0.7,0,1.4,0.2,2,0.6c0.1,0.1,0.4,0.2,0.5,0c0,0,0.1-0.1,0.1-0.1l0.4-0.6
				c0.1-0.2,0.1-0.4,0-0.5c0,0,0,0-0.1,0c-0.9-0.6-2-0.9-3.1-0.9c-2.3,0-3.8,1.3-3.8,3.2s0.8,2.8,3.4,3.1c1.8,0.3,2.3,0.7,2.3,1.7
				s-0.8,1.7-2.1,1.7c-1,0-1.9-0.3-2.7-0.9c-0.1-0.2-0.4-0.2-0.5,0c0,0,0,0-0.1,0.1l-0.4,0.6c-0.2,0.1-0.2,0.4,0,0.5c0,0,0,0,0,0
				c1.1,0.9,2.5,1.3,3.8,1.3C204.5,55.9,205.9,54.7,205.9,52.8 M191.2,55.2c0,0.2,0.1,0.4,0.3,0.4c0,0,0,0,0.1,0h1
				c0.2,0,0.4-0.1,0.4-0.3c0,0,0-0.1,0-0.1v-6.6c0-1.7,0.6-2.4,2-2.4c0.5,0,1,0.1,1.4,0.4c0.2,0.1,0.4,0.1,0.5,0c0,0,0,0,0.1-0.1
				l0.4-0.6c0.1-0.2,0.1-0.4-0.1-0.5c0,0,0,0-0.1,0c-0.7-0.4-1.5-0.7-2.4-0.6c-2.4,0-3.6,1.3-3.6,3.9V55.2z M187.3,49.4h-4.5V49
				c0-1.9,0.7-2.7,2.2-2.7c1.5,0,2.2,0.8,2.2,2.7V49.4z M185,44.7c-2.6,0-4,1.4-4,4.1v2.9c0,2.8,1.5,4.1,4.3,4.1
				c1.2,0,2.4-0.4,3.2-1.3c0.2-0.2,0.2-0.4,0-0.6c0,0,0,0,0,0l-0.4-0.5c-0.1-0.2-0.3-0.2-0.5-0.1c0,0-0.1,0-0.1,0.1
				c-0.6,0.6-1.4,0.9-2.2,0.9c-1.8,0-2.6-0.8-2.6-2.8v-0.6h5.8c0.2,0,0.4-0.1,0.4-0.3c0,0,0,0,0-0.1v-1.7
				C189,46.2,187.6,44.7,185,44.7 M178.3,45c-0.2,0-0.4,0.1-0.4,0.3l-2.6,8.1h0l-2.5-8.1c0-0.2-0.2-0.4-0.5-0.3h-1.1
				c-0.3,0-0.5,0.2-0.3,0.5l3.4,9.8c0.1,0.2,0.3,0.4,0.5,0.3h1.2c0.2,0,0.4-0.1,0.5-0.3l3.4-9.8c0.1-0.3,0-0.5-0.3-0.5H178.3z
				 M168.5,55.7c0.2,0,0.4-0.1,0.4-0.3c0,0,0,0,0-0.1v-9.8c0-0.2-0.1-0.4-0.3-0.4c0,0,0,0-0.1,0h-1c-0.2,0-0.4,0.1-0.4,0.3
				c0,0,0,0.1,0,0.1v9.8c0,0.2,0.1,0.4,0.3,0.4c0,0,0.1,0,0.1,0H168.5z M168,43c0.6,0,1.1-0.5,1.1-1.2s-0.5-1.1-1.2-1.1
				c-0.6,0-1.1,0.5-1.1,1.1C166.8,42.5,167.3,43,168,43C167.9,43,167.9,43,168,43 M162.5,55.2c0,0.2,0.1,0.4,0.3,0.4
				c0,0,0.1,0,0.1,0h1c0.2,0,0.4-0.1,0.4-0.3c0,0,0,0,0-0.1v-6.5c0-2.6-1.4-4-4-4c-2.6,0-4,1.4-4,4v6.5c0,0.2,0.1,0.4,0.3,0.4
				c0,0,0,0,0.1,0h1c0.2,0,0.4-0.1,0.4-0.3c0,0,0-0.1,0-0.1v-6.3c0-1.8,0.7-2.6,2.2-2.6s2.2,0.8,2.2,2.6L162.5,55.2z M153.6,41.8
				c0-0.2-0.1-0.4-0.3-0.4c0,0,0,0-0.1,0h-1.1c-0.2,0-0.4,0.1-0.4,0.3c0,0,0,0,0,0.1v9c0,2.4-1,3.5-2.9,3.5s-2.9-1.1-2.9-3.5v-9
				c0-0.2-0.1-0.4-0.3-0.4c0,0-0.1,0-0.1,0h-1.1c-0.2,0-0.4,0.1-0.4,0.3c0,0,0,0,0,0.1v9.1c0,3.2,1.7,5,4.9,5c3.1,0,4.9-1.7,4.9-5
				L153.6,41.8z"/>
			<path class="st6" d="M220,30.6c0,0.2,0.1,0.4,0.3,0.4c0,0,0,0,0.1,0h1c0.2,0,0.4-0.1,0.4-0.3c0,0,0-0.1,0-0.1v-6.5
				c0-2.6-1.4-4-4-4c-2.6,0-4,1.4-4,4v6.5c0,0.2,0.1,0.4,0.3,0.4c0,0,0,0,0.1,0h1c0.2,0,0.4-0.1,0.4-0.3c0,0,0-0.1,0-0.1v-6.3
				c0-1.8,0.7-2.6,2.2-2.6c1.5,0,2.2,0.8,2.2,2.6V30.6z M207.4,29.7c-1.3,0-2.1-0.6-2.1-1.7c0-1.2,0.8-1.8,2.3-1.8h2.1V27
				C209.7,28.8,209,29.7,207.4,29.7 M207.4,20.1c-1.2,0-2.4,0.3-3.3,1.1c-0.2,0.1-0.2,0.4-0.1,0.5c0,0,0,0,0,0l0.4,0.6
				c0.2,0.2,0.4,0.2,0.6,0c0.6-0.5,1.3-0.8,2.1-0.8c1.7,0,2.5,0.8,2.5,2.8v0.3h-2.3c-2.5,0-3.8,1.2-3.8,3.2s1.4,3.3,3.8,3.3
				c2.7,0,4.1-1.4,4.1-4.1v-2.9C211.5,21.5,210,20.1,207.4,20.1 M200.1,24.8h-4.5v-0.5c0-1.9,0.7-2.7,2.2-2.7s2.2,0.8,2.2,2.7V24.8z
				 M197.9,20.1c-2.6,0-4,1.4-4,4.1v2.9c0,2.8,1.5,4.1,4.3,4.1c1.2,0,2.4-0.4,3.2-1.3c0.2-0.2,0.2-0.4,0-0.6l-0.4-0.5
				c-0.1-0.2-0.3-0.2-0.5-0.1c0,0-0.1,0.1-0.1,0.1c-0.6,0.6-1.3,0.9-2.1,0.9c-1.8,0-2.6-0.8-2.6-2.8v-0.6h5.8c0.2,0,0.4-0.1,0.4-0.3
				c0,0,0,0,0-0.1v-1.7C201.9,21.5,200.5,20.1,197.9,20.1 M190,27c0,1.8-0.7,2.7-2.3,2.7s-2.3-0.9-2.3-2.7v-2.6
				c0-1.8,0.7-2.7,2.3-2.7s2.3,0.8,2.3,2.7V27z M187.7,20.1c-2.6,0-4.1,1.4-4.1,4.1V34c0,0.2,0.1,0.4,0.3,0.4c0,0,0.1,0,0.1,0h0.9
				c0.2,0,0.4-0.1,0.4-0.3c0,0,0-0.1,0-0.1v-3.8h0c0.6,0.7,1.5,1.1,2.5,1.1c2.5,0,3.8-1.4,3.8-4.1v-3
				C191.7,21.5,190.3,20.1,187.7,20.1 M179.4,27c0,1.8-0.7,2.7-2.3,2.7s-2.3-0.8-2.3-2.7v-2.7c0-1.8,0.7-2.7,2.3-2.7
				s2.3,0.8,2.3,2.7V27z M177.2,20.1c-2.6,0-4,1.4-4,4.1v3.1c0,2.6,1.4,4,4,4s4.1-1.4,4.1-4v-3.1C181.2,21.5,179.8,20.1,177.2,20.1
				 M165.8,30.6c0,0.2,0.1,0.4,0.3,0.4c0,0,0.1,0,0.1,0h1c0.2,0,0.4-0.1,0.4-0.3c0,0,0,0,0-0.1V24c0-1.6,0.6-2.4,2-2.4
				c0.5,0,1,0.1,1.4,0.4c0.2,0.1,0.4,0.1,0.5,0c0,0,0-0.1,0.1-0.1l0.4-0.6c0.1-0.2,0.1-0.4-0.1-0.6c0,0,0,0-0.1,0
				c-0.7-0.4-1.5-0.7-2.4-0.6c-2.4,0-3.6,1.3-3.6,3.9V30.6z M163.1,20.8c0-0.2-0.1-0.4-0.3-0.4c0,0-0.1,0-0.1,0h-0.9
				c-0.2,0-0.4,0.1-0.4,0.3c0,0,0,0,0,0.1v6.4c0,1.7-0.7,2.5-2.2,2.5s-2.2-0.8-2.2-2.5v-6.4c0-0.2-0.1-0.4-0.3-0.4c0,0,0,0-0.1,0h-1
				c-0.2,0-0.4,0.1-0.4,0.3c0,0,0,0.1,0,0.1v6.6c0,2.6,1.4,3.9,3.9,3.9s3.9-1.4,3.9-3.9L163.1,20.8z M146,22.9v-4.5h6.6
				c0.2,0,0.4-0.1,0.4-0.3c0,0,0-0.1,0-0.1v-0.9c0-0.2-0.1-0.4-0.3-0.4c0,0,0,0-0.1,0h-8.2c-0.2,0-0.4,0.1-0.4,0.3c0,0,0,0.1,0,0.1
				v13.5c0,0.2,0.1,0.4,0.3,0.4c0,0,0.1,0,0.1,0h8.1c0.2,0,0.4-0.1,0.4-0.3c0,0,0,0,0-0.1v-0.9c0-0.2-0.1-0.4-0.3-0.4c0,0,0,0-0.1,0
				H146v-4.7h5.7c0.2,0,0.4-0.1,0.4-0.3c0,0,0-0.1,0-0.1v-0.9c0-0.2-0.1-0.4-0.3-0.4c0,0,0,0-0.1,0L146,22.9z"/>
		</g>
	</g>
	<g id="cc" class="st7">
		<g id="BY-SA" transform="matrix(0.9875019,0,0,0.9333518,-323.90064,-356.81188)" class="st8">
			<g id="g3747" transform="translate(158,145)">
				<rect id="rect3749" x="454.8" y="303.9" class="st9" width="102" height="19.1"/>
				<rect id="rect3751" x="456.7" y="305.8" class="st10" width="98.2" height="15.3"/>
				<path id="path3753" class="st11" d="M456.7,305.8v15.3h25.9c1.7-2.2,2.8-4.8,2.8-7.7c0-2.8-1.1-5.4-2.8-7.7H456.7z"/>
				<g>
					<defs>
						<rect id="SVGID_00000074402868712176398640000002903171293284908944_" x="457.1" y="306.3" width="25" height="14.3"/>
					</defs>
					<clipPath id="SVGID_00000074424610194297675010000018029410453116567461_">
						<use xlink:href="#SVGID_00000074402868712176398640000002903171293284908944_"  style="overflow:visible;"/>
					</clipPath>
					
						<g id="g3755" transform="matrix(0.9612533,0,0,0.9612533,6.8341566,9.5069994)" style="clip-path:url(#SVGID_00000074424610194297675010000018029410453116567461_);">
						<path id="path3757" class="st13" d="M491.3,316.2c0,5-4,9-9,9c-5,0-9-4-9-9c0,0,0,0,0,0c0-5,4-9,9-9
							C487.3,307.2,491.3,311.2,491.3,316.2C491.3,316.2,491.3,316.2,491.3,316.2z"/>
						<path id="path3759" class="st10" d="M489.6,308.9c2,2,3,4.4,3,7.3c0,2.9-1,5.3-2.9,7.2c-2.1,2-4.5,3.1-7.4,3.1
							c-2.8,0-5.2-1-7.2-3c-2-2-3-4.5-3-7.3c0-2.8,1-5.3,3-7.3c2-2,4.4-3,7.2-3C485.2,305.9,487.6,306.9,489.6,308.9z M476.4,310.2
							c-1.7,1.7-2.5,3.7-2.5,6c0,2.3,0.8,4.3,2.5,5.9c1.7,1.7,3.7,2.5,6,2.5s4.3-0.8,6-2.5c1.6-1.6,2.4-3.5,2.4-5.9
							c0-2.4-0.8-4.4-2.5-6c-1.6-1.6-3.6-2.5-6-2.5S478,308.6,476.4,310.2z M480.8,315.2c-0.3-0.6-0.6-0.8-1.2-0.8
							c-0.9,0-1.4,0.6-1.4,1.8c0,1.2,0.5,1.8,1.4,1.8c0.6,0,1-0.3,1.3-0.9l1.3,0.7c-0.6,1.1-1.5,1.6-2.7,1.6c-0.9,0-1.7-0.3-2.2-0.9
							c-0.6-0.6-0.8-1.4-0.8-2.3c0-1,0.3-1.8,0.9-2.3c0.6-0.6,1.3-0.9,2.1-0.9c1.3,0,2.2,0.5,2.7,1.5L480.8,315.2z M486.8,315.2
							c-0.3-0.6-0.6-0.8-1.1-0.8c-0.9,0-1.4,0.6-1.4,1.8c0,1.2,0.5,1.8,1.4,1.8c0.6,0,1-0.3,1.3-0.9l1.3,0.7
							c-0.6,1.1-1.5,1.6-2.7,1.6c-0.9,0-1.7-0.3-2.2-0.9c-0.6-0.6-0.8-1.4-0.8-2.3c0-1,0.3-1.8,0.8-2.3c0.6-0.6,1.3-0.9,2.2-0.9
							c1.3,0,2.2,0.5,2.7,1.5L486.8,315.2z"/>
					</g>
				</g>
			</g>
			<path id="text3761" class="st13" d="M649.7,457.6c0.3,0,0.6-0.1,0.7-0.2c0.2-0.1,0.2-0.3,0.2-0.6c0-0.3-0.1-0.5-0.2-0.6
				c-0.2-0.1-0.4-0.2-0.7-0.2h-1.1v1.6H649.7 M649.8,460.9c0.4,0,0.7-0.1,0.9-0.3c0.2-0.2,0.3-0.4,0.3-0.8c0-0.3-0.1-0.6-0.3-0.7
				c-0.2-0.2-0.5-0.3-0.9-0.3h-1.2v2H649.8 M651.6,458.2c0.4,0.1,0.8,0.4,1,0.7c0.2,0.3,0.4,0.7,0.4,1.2c0,0.7-0.3,1.3-0.8,1.7
				c-0.5,0.4-1.3,0.5-2.3,0.5h-3.3v-7.7h3c1.1,0,1.8,0.2,2.3,0.5c0.5,0.3,0.7,0.8,0.7,1.5c0,0.4-0.1,0.7-0.3,1
				C652.2,457.9,651.9,458,651.6,458.2 M652.8,454.6h2.2l1.8,2.7l1.8-2.7h2.2l-2.9,4.4v3.2h-2V459L652.8,454.6 M659.6,458.5h3.2v1.5
				h-3.2V458.5 M669.7,454.9v1.6c-0.4-0.2-0.8-0.3-1.2-0.4c-0.4-0.1-0.8-0.1-1.1-0.1c-0.5,0-0.8,0.1-1.1,0.2
				c-0.2,0.1-0.3,0.3-0.3,0.6c0,0.2,0.1,0.4,0.2,0.5c0.2,0.1,0.4,0.2,0.8,0.3l0.8,0.2c0.9,0.2,1.5,0.4,1.8,0.8
				c0.4,0.3,0.5,0.8,0.5,1.5c0,0.8-0.3,1.5-0.8,1.9c-0.5,0.4-1.3,0.6-2.3,0.6c-0.5,0-1,0-1.5-0.1c-0.5-0.1-1-0.2-1.5-0.4v-1.7
				c0.5,0.3,1,0.5,1.4,0.6c0.5,0.1,0.9,0.2,1.3,0.2c0.4,0,0.8-0.1,1-0.2c0.2-0.1,0.3-0.3,0.3-0.6c0-0.2-0.1-0.4-0.2-0.6
				c-0.2-0.1-0.5-0.2-0.9-0.3l-0.8-0.2c-0.8-0.2-1.3-0.4-1.7-0.8c-0.4-0.4-0.5-0.8-0.5-1.5c0-0.8,0.2-1.3,0.7-1.8
				c0.5-0.4,1.2-0.6,2.1-0.6c0.4,0,0.9,0,1.3,0.1C668.8,454.6,669.2,454.7,669.7,454.9 M676.6,460.9h-3.1l-0.5,1.4h-2l2.9-7.7h2.4
				l2.9,7.7h-2L676.6,460.9 M674,459.5h2.1l-1.1-3L674,459.5"/>
		</g>
	</g>
	<g id="oer_00000163057532861948714580000013240056878225556104_" transform="translate(16.398918,-42.086234)">
		<rect id="rect2_00000171717449233048616250000002998385742499299999_" x="349" y="92.1" class="st14" width="9.8" height="16"/>
		<path id="path4_00000088823716212783933190000007182887535336501935_" class="st15" d="M278.8,87.8c0,11.4,9.3,20.7,20.7,20.7
			c11.4,0,20.7-9.3,20.7-20.7L278.8,87.8z"/>
		<path id="path6_00000023959367177695215800000009286958143966789542_" class="st14" d="M299.5,67.1v20.7h20.7l0,0
			C320.2,76.4,310.9,67.1,299.5,67.1z"/>
		<path id="path8_00000180332114931113418320000014959531549818734515_" class="st16" d="M299.6,67.1
			C299.5,67.1,299.5,67.1,299.6,67.1c-11.5,0-20.8,9.3-20.8,20.7l0,0h20.8V67.1z"/>
		<path id="path10_00000092444005402242734210000013701579276776520618_" class="st16" d="M331.8,91.2H322v0L331.8,91.2L331.8,91.2z
			 M331.8,75l-9.8-7.5v23.7l9.8-7.5V75z"/>
		<rect id="rect12_00000039828975530746502270000010248872760427523717_" x="322" y="91.2" class="st14" width="9.8" height="9.4"/>
		
			<rect id="rect14_00000032643543103851400630000002170666524371125947_" x="322" y="100.6" class="st16" width="24.5" height="7.5"/>
		<polygon id="polygon16_00000136387274626482923430000011915784026396644504_" class="st14" points="346.5,67.5 322,67.5 331.8,75 
			346.5,75 		"/>
		<polygon id="polygon18_00000026857075932699110600000012961133867143959218_" class="st15" points="344.7,91.2 322,91.2 
			331.8,83.7 344.7,83.7 		"/>
		<path id="path20_00000076590185354513264680000005624357148625540227_" class="st16" d="M379.8,80.3c0-3.5-1.3-6.5-3.9-9
			c-2.6-2.5-6.2-3.7-10.8-3.7v0H365h0l-15.9,0l-0.1,0l0,14.6l0,10l11,0l11,0l0,0c3.1-1,5.3-2.6,6.7-4.8
			C379.1,85,379.8,82.7,379.8,80.3"/>
		<polygon id="polygon34_00000131328395000769650660000001672493361790396570_" class="st15" points="360,92.1 369.1,108.1 
			380.6,108.1 371,92.1 		"/>
	</g>
	<g id="CC-big">
		<path class="st17" d="M426.5,26.5l109.4,0.2c1.5,0,2.9-0.2,2.9,3.1L538.6,66H423.7V29.6C423.7,28,423.9,26.5,426.5,26.5z"/>
		<path class="st13" d="M456.5,45c0,7.3-5.9,13.2-13.1,13.2c-7.3,0-13.2-5.9-13.2-13.2v0c0-7.3,5.9-13.2,13.2-13.2
			C450.6,31.8,456.5,37.7,456.5,45C456.5,45,456.5,45,456.5,45z M484.3,30.4c5.7,0,10.4,4.7,10.4,10.4s-4.6,10.4-10.4,10.4
			c-5.7,0-10.4-4.7-10.4-10.4C474,35,478.6,30.4,484.3,30.4z M522,40.5c0,5.7-4.6,10.3-10.2,10.3c-5.6,0-10.2-4.6-10.2-10.3v0
			c0-5.7,4.6-10.3,10.2-10.3C517.4,30.3,522,34.9,522,40.5C522,40.5,522,40.5,522,40.5z"/>
		<path class="st10" d="M454.1,34.2c2.9,2.9,4.4,6.5,4.4,10.8s-1.4,7.8-4.3,10.7c-3,3-6.6,4.5-10.8,4.5c-4.1,0-7.6-1.5-10.6-4.5
			c-3-3-4.5-6.6-4.5-10.7s1.5-7.7,4.5-10.8c2.9-2.9,6.4-4.4,10.6-4.4C447.6,29.8,451.1,31.3,454.1,34.2z M434.7,36.2
			c-2.5,2.5-3.7,5.4-3.7,8.8c0,3.4,1.2,6.3,3.7,8.7c2.4,2.5,5.3,3.7,8.7,3.7s6.3-1.2,8.8-3.7c2.4-2.3,3.5-5.2,3.5-8.7
			c0-3.5-1.2-6.4-3.6-8.8c-2.4-2.4-5.3-3.6-8.7-3.6S437.1,33.8,434.7,36.2z M441.2,43.5c-0.4-0.8-0.9-1.2-1.7-1.2
			c-1.3,0-2,0.9-2,2.7c0,1.8,0.7,2.7,2,2.7c0.9,0,1.5-0.4,1.9-1.3l1.8,1c-0.9,1.6-2.2,2.4-4,2.4c-1.4,0-2.4-0.4-3.3-1.3
			c-0.8-0.8-1.2-2-1.2-3.5c0-1.4,0.4-2.6,1.3-3.4c0.8-0.9,1.9-1.3,3.1-1.3c1.9,0,3.2,0.7,4,2.2C443.2,42.5,441.2,43.5,441.2,43.5z
			 M449.9,43.5c-0.4-0.8-0.9-1.2-1.7-1.2c-1.4,0-2,0.9-2,2.7c0,1.8,0.7,2.7,2,2.7c0.9,0,1.5-0.4,1.8-1.3l1.9,1
			c-0.9,1.6-2.2,2.4-3.9,2.4c-1.4,0-2.4-0.4-3.3-1.3c-0.8-0.8-1.2-2-1.2-3.5c0-1.4,0.4-2.6,1.2-3.4c0.8-0.9,1.9-1.3,3.2-1.3
			c1.9,0,3.2,0.7,4,2.2C451.9,42.5,449.9,43.5,449.9,43.5z M536.8,26H425.4c-1.2,0-2.2,1-2.2,2.2v38.1c0,0.3,0.2,0.5,0.5,0.5h114.8
			c0.3,0,0.5-0.2,0.5-0.5V28.2C539,27,538,26,536.8,26z M425.4,27h111.5c0.7,0,1.2,0.5,1.2,1.2v26.5h-79.7c-2.9,5.3-8.5,8.9-15,8.9
			c-6.5,0-12.1-3.6-15-8.9h-4.2V28.2C424.2,27.5,424.7,27,425.4,27z M511.7,29.3c-3.1,0-5.7,1.1-7.9,3.3c-2.2,2.3-3.3,4.9-3.3,8
			s1.1,5.7,3.3,7.9c2.2,2.2,4.8,3.3,7.9,3.3c3.1,0,5.8-1.1,8-3.4c2.1-2.1,3.2-4.8,3.2-7.9c0-3.2-1.1-5.8-3.3-8
			C517.5,30.4,514.9,29.3,511.7,29.3z M511.8,31.3c2.5,0,4.7,0.9,6.5,2.7c1.8,1.8,2.7,4,2.7,6.5c0,2.6-0.9,4.7-2.6,6.4
			c-1.8,1.8-4,2.8-6.5,2.8c-2.5,0-4.7-0.9-6.5-2.7c-1.8-1.8-2.7-4-2.7-6.5c0-2.5,0.9-4.7,2.7-6.5C507.1,32.2,509.2,31.3,511.8,31.3z
			 M506.8,39c0.4-2.8,2.4-4.3,4.9-4.3c3.6,0,5.7,2.6,5.7,6.1c0,3.4-2.3,6-5.8,6c-2.4,0-4.5-1.5-4.9-4.4h2.8c0.1,1.5,1.1,2,2.5,2
			c1.6,0,2.6-1.5,2.6-3.8c0-2.4-0.9-3.6-2.6-3.6c-1.2,0-2.3,0.4-2.5,2l0.8,0l-2.2,2.2l-2.2-2.2L506.8,39L506.8,39z M487.3,37.8
			c0-0.4-0.3-0.7-0.7-0.7H482c-0.4,0-0.7,0.3-0.7,0.7v4.6h1.3v5.5h3.5v-5.5h1.3C487.3,42.4,487.3,37.8,487.3,37.8z M484.3,33.3
			c0.9,0,1.6,0.7,1.6,1.6s-0.7,1.6-1.6,1.6c-0.9,0-1.6-0.7-1.6-1.6S483.5,33.3,484.3,33.3z M484.3,29.3c-3.1,0-5.7,1.1-7.9,3.3
			c-2.2,2.3-3.3,4.9-3.3,8s1.1,5.7,3.3,7.9c2.2,2.2,4.8,3.3,7.9,3.3c3.1,0,5.8-1.1,8-3.4c2.1-2.1,3.2-4.8,3.2-7.9
			c0-3.2-1.1-5.8-3.3-8C490.1,30.4,487.5,29.3,484.3,29.3z M484.3,31.3c2.5,0,4.7,0.9,6.5,2.7c1.8,1.8,2.7,4,2.7,6.5
			c0,2.6-0.9,4.7-2.6,6.4c-1.8,1.8-4,2.8-6.5,2.8c-2.5,0-4.7-0.9-6.5-2.7c-1.8-1.8-2.7-4-2.7-6.5c0-2.5,0.9-4.7,2.7-6.5
			C479.7,32.2,481.8,31.3,484.3,31.3z"/>
		<path class="st13" d="M514.4,57.8l2.4,6.4h-1.5l-0.5-1.4h-2.4l-0.5,1.4h-1.4l2.4-6.4C512.9,57.8,514.4,57.8,514.4,57.8z
			 M514.4,61.7l-0.8-2.4h0l-0.8,2.4H514.4z M506.4,62.6c0.1,0.2,0.2,0.3,0.3,0.4c0.1,0.1,0.3,0.2,0.5,0.2c0.2,0,0.4,0.1,0.5,0.1
			c0.1,0,0.3,0,0.4,0c0.1,0,0.3-0.1,0.4-0.1c0.1-0.1,0.2-0.1,0.3-0.2c0.1-0.1,0.1-0.2,0.1-0.4c0-0.2-0.1-0.3-0.2-0.4
			c-0.1-0.1-0.3-0.2-0.4-0.3c-0.2-0.1-0.4-0.1-0.6-0.2c-0.2-0.1-0.5-0.1-0.7-0.2c-0.2-0.1-0.5-0.1-0.7-0.2c-0.2-0.1-0.4-0.2-0.6-0.3
			c-0.2-0.1-0.3-0.3-0.4-0.5c-0.1-0.2-0.2-0.5-0.2-0.8c0-0.3,0.1-0.6,0.2-0.9c0.1-0.2,0.3-0.4,0.6-0.6c0.2-0.2,0.5-0.3,0.8-0.4
			c0.3-0.1,0.6-0.1,0.9-0.1c0.3,0,0.7,0,1,0.1c0.3,0.1,0.6,0.2,0.8,0.4c0.2,0.2,0.4,0.4,0.6,0.6c0.1,0.3,0.2,0.6,0.2,1h-1.4
			c0-0.2-0.1-0.4-0.1-0.5c-0.1-0.1-0.2-0.2-0.3-0.3c-0.1-0.1-0.2-0.1-0.4-0.2c-0.1,0-0.3,0-0.5,0c-0.1,0-0.2,0-0.3,0
			c-0.1,0-0.2,0.1-0.3,0.1c-0.1,0.1-0.2,0.1-0.2,0.2s-0.1,0.2-0.1,0.3c0,0.1,0,0.2,0.1,0.3c0,0.1,0.1,0.2,0.3,0.2
			c0.1,0.1,0.3,0.1,0.6,0.2c0.2,0.1,0.6,0.1,1,0.3c0.1,0,0.3,0.1,0.5,0.1c0.2,0.1,0.4,0.2,0.6,0.3c0.2,0.1,0.4,0.3,0.5,0.6
			c0.2,0.2,0.2,0.5,0.2,0.9c0,0.3-0.1,0.6-0.2,0.8c-0.1,0.3-0.3,0.5-0.5,0.7c-0.2,0.2-0.5,0.3-0.8,0.4c-0.3,0.1-0.7,0.2-1.2,0.2
			c-0.4,0-0.7,0-1-0.1c-0.3-0.1-0.6-0.2-0.9-0.4c-0.3-0.2-0.5-0.4-0.6-0.7c-0.1-0.3-0.2-0.6-0.2-1h1.4
			C506.3,62.3,506.4,62.5,506.4,62.6z M483.7,57.8h1.6l1.5,2.5l1.5-2.5h1.6l-2.4,4v2.5H486v-2.5C486,61.7,483.7,57.8,483.7,57.8z
			 M481.1,57.8c0.3,0,0.6,0,0.8,0.1c0.3,0.1,0.5,0.1,0.6,0.3c0.2,0.1,0.3,0.3,0.4,0.5c0.1,0.2,0.1,0.5,0.1,0.8
			c0,0.3-0.1,0.6-0.2,0.8c-0.1,0.2-0.4,0.4-0.6,0.5c0.4,0.1,0.7,0.3,0.9,0.6c0.2,0.3,0.3,0.6,0.3,1c0,0.3-0.1,0.6-0.2,0.8
			c-0.1,0.2-0.3,0.4-0.5,0.6c-0.2,0.2-0.5,0.3-0.7,0.3c-0.3,0.1-0.6,0.1-0.8,0.1h-3.1v-6.4L481.1,57.8L481.1,57.8z M480.9,60.4
			c0.3,0,0.5-0.1,0.6-0.2c0.2-0.1,0.2-0.3,0.2-0.6c0-0.2,0-0.3-0.1-0.4c-0.1-0.1-0.1-0.2-0.2-0.2s-0.2-0.1-0.3-0.1
			c-0.1,0-0.2,0-0.4,0h-1.3v1.5L480.9,60.4L480.9,60.4z M481,63.1c0.1,0,0.3,0,0.4,0c0.1,0,0.2-0.1,0.3-0.1c0.1-0.1,0.2-0.1,0.2-0.3
			s0.1-0.2,0.1-0.4c0-0.3-0.1-0.6-0.3-0.7c-0.2-0.1-0.4-0.2-0.7-0.2h-1.5v1.8L481,63.1L481,63.1z"/>
	</g>
</g>
<g id="HIlfsl">
</g>
</svg>
